<?xml version="1.0" encoding="utf-8"?>
<!-- Generator: Adobe Illustrator 23.0.3, SVG Export Plug-In . SVG Version: 6.00 Build 0)  -->
<svg version="1.1" xmlns="http://www.w3.org/2000/svg" xmlns:xlink="http://www.w3.org/1999/xlink" x="0px" y="0px"
	 viewBox="0 0 1026 306.3" style="enable-background:new 0 0 1026 306.3;" xml:space="preserve">
<style type="text/css">
	.st0{fill:#172C36;}
	.st1{fill:#BE2128;}
	.st2{fill:#249847;}
	.st3{fill:#064F8C;}
	.st4{fill:#4F4F4F;}
</style>
<g id="Layer_2">
</g>
<g id="Layer_1">
	<g id="Layer_2_2_">
	</g>
	<g>
		<path class="st0" d="M365.2,113.7l-8.2,38.7h-20.5l21.7-102h27c13.4,0,23.2,2.6,29.1,7.7c6,5.1,7.8,13,5.6,23.6
			c-2.1,10-7.2,17.9-15.1,23.5c-7.9,5.7-17.7,8.5-29.4,8.5H365.2z M368.6,97.7h8.3c5.6,0,10.4-1.4,14.3-4.2
			c3.9-2.8,6.4-6.7,7.5-11.8c1-4.6,0-8.3-2.8-11c-2.9-2.8-7-4.2-12.3-4.2h-8.3L368.6,97.7z"/>
		<path class="st0" d="M465.3,140.2c-4.3,5.5-8.7,9.2-13.4,11.1c-4.7,1.9-9,2.9-13.1,2.9c-7.9,0-13.8-2.2-17.6-6.5
			c-3.9-4.3-5.1-9.6-3.8-15.9c1.8-8.5,6.3-14.9,13.4-19.3c7.1-4.4,16.7-6.6,28.8-6.6h12l0.3-1.6c1.1-5.4,0.5-9.1-2.1-11.3
			c-2.5-2.2-6.4-3.3-11.8-3.3c-4.1,0-8.4,0.8-12.8,2.3c-4.5,1.6-8.4,3.6-11.9,6.1l3.1-17.1c2.8-1.4,7.1-2.7,13-3.9
			c5.8-1.2,10.8-1.8,14.9-1.8c11.4,0,19.1,2.6,23,7.7c3.9,5.2,4.7,13.5,2.2,25l-4.3,20.2c-1.4,6.6-2.4,12.3-3.1,17
			c-0.7,4.7-0.9,7.1-0.8,7.1h-17.5c-0.2,0-0.1-1.2,0.2-3.6C464,146.5,464.5,143.6,465.3,140.2z M468.7,119l0.3-1.3h-8.9
			c-7.3,0.2-12.8,1.3-16.6,3.4c-3.8,2-6.2,5.1-7.1,9.2c-0.6,3-0.1,5.4,1.6,7.1c1.7,1.7,4.6,2.6,8.7,2.6c5.7,0,10.6-2,14.5-6.1
			C465,129.7,467.5,124.8,468.7,119z"/>
		<path class="st0" d="M518.9,152.5h-19.4l16-75.3h17.4l-3.7,17.4c3.3-6.7,7.3-11.6,11.9-14.6c4.7-3,9.2-4.5,13.5-4.5L560,76
			l-4.2,19.7c-0.7-0.4-1.7-0.8-3-1.1c-1.3-0.3-3.1-0.5-5.3-0.5c-5.6,0-10.1,2.4-13.8,7.1c-3.6,4.7-6.3,11.3-8.1,19.7L518.9,152.5z"
			/>
		<path class="st0" d="M603.4,140.2c-4.3,5.5-8.7,9.2-13.4,11.1c-4.7,1.9-9,2.9-13.1,2.9c-7.9,0-13.8-2.2-17.6-6.5
			c-3.9-4.3-5.1-9.6-3.8-15.9c1.8-8.5,6.3-14.9,13.4-19.3c7.1-4.4,16.7-6.6,28.8-6.6h12l0.3-1.6c1.1-5.4,0.5-9.1-2.1-11.3
			c-2.5-2.2-6.4-3.3-11.8-3.3c-4.1,0-8.4,0.8-12.8,2.3c-4.5,1.6-8.4,3.6-11.9,6.1l3-17.1c2.8-1.4,7.1-2.7,13-3.9
			c5.8-1.2,10.8-1.8,14.9-1.8c11.4,0,19.1,2.6,23,7.7c3.9,5.2,4.7,13.5,2.2,25l-4.3,20.2c-1.4,6.6-2.4,12.3-3.1,17
			c-0.7,4.7-0.9,7.1-0.8,7.1h-17.5c-0.2,0-0.1-1.2,0.2-3.6C602.1,146.5,602.6,143.6,603.4,140.2z M606.8,119l0.3-1.3h-8.9
			c-7.3,0.2-12.8,1.3-16.6,3.4c-3.8,2-6.2,5.1-7.1,9.2c-0.6,3-0.1,5.4,1.6,7.1c1.7,1.7,4.6,2.6,8.7,2.6c5.7,0,10.6-2,14.5-6.1
			C603.1,129.7,605.6,124.8,606.8,119z"/>
		<path class="st0" d="M724.3,50.5h20.3l-55.9,102h-25.1l-13.4-102h21.9l9.1,80.8L724.3,50.5z"/>
		<path class="st0" d="M754.6,152.5H735l16-75.3h19.6L754.6,152.5z M753.9,63.5l4-18.7h19.6l-4,18.7H753.9z"/>
		<path class="st0" d="M836.5,148.2c-3.7,1.9-7.7,3.3-12,4.4c-4.3,1.1-9,1.6-13.9,1.6c-13.1,0-22.3-3.4-27.9-10.2
			c-5.5-6.8-6.9-16.6-4.2-29.4c2.5-11.8,7.7-21.3,15.5-28.4c7.9-7.2,17.1-10.7,27.7-10.7c12.7,0,21,3.8,24.9,11.5
			c3.9,7.7,4.3,19,1.1,33.9h-52.2c-0.2,5.4,0.7,9.5,2.5,12.3c2.8,4.5,7.9,6.7,15.2,6.7c5.3,0,10.5-1,15.8-3c5.3-2,8.9-3.6,10.8-4.7
			L836.5,148.2z M798.2,107.5H832c0.9-5.6,0.3-10-1.8-13.1c-2.1-3.1-5.7-4.6-10.6-4.6c-5.7,0-10.5,2.2-14.7,6.6
			C802.3,99.1,800.1,102.8,798.2,107.5z"/>
		<path class="st0" d="M939.5,77.2l4.7,56.1l27.6-56.1h18.7l-38.9,75.3h-23.2l-4-58.2l-28.6,58.2h-22.4L864,77.2h20.8l4.8,56.3
			l27.3-56.3H939.5z"/>
	</g>
	<polygon class="st1" points="112.3,256.9 43.6,256.9 100,43.3 168.7,43.3 	"/>
	<polygon class="st2" points="197.7,256.9 129,256.9 185.5,43.3 254.1,43.3 	"/>
	<polygon class="st3" points="283.1,256.9 214.4,256.9 270.9,43.3 339.5,43.3 	"/>
	<g>
		<path class="st4" d="M334.3,175.9h43.1l-2.7,12.3h-27.3l-4.1,19.3h26.1l-2.5,12.3h-26.2l-7.2,34.3h-15.7L334.3,175.9z"/>
		<path class="st4" d="M390.5,170.1h15l-17.8,84h-15L390.5,170.1z"/>
		<path class="st4" d="M440.3,195.1c3.9,0,7.4,0.6,10.7,1.7c3.2,1.2,6,2.8,8.3,5c2.3,2.2,4.1,4.8,5.4,8c1.3,3.1,2,6.7,2,10.6
			c0,5.1-0.8,9.8-2.5,14.1c-1.7,4.3-4,8-7.1,11.1c-3,3.1-6.6,5.5-10.9,7.3c-4.2,1.8-8.9,2.6-13.9,2.6c-8.2,0-14.6-2.4-19.3-7.1
			c-4.6-4.7-6.9-11.1-6.9-19.3c0-4.8,0.9-9.3,2.6-13.4c1.8-4.2,4.2-7.8,7.2-10.8c3.1-3,6.7-5.4,10.8-7.2
			C430.9,196,435.4,195.1,440.3,195.1z M433.6,243.8c2.9,0,5.4-0.7,7.6-2.2c2.2-1.5,4-3.4,5.4-5.7c1.5-2.3,2.6-4.8,3.3-7.6
			c0.7-2.7,1.1-5.3,1.1-7.8c0-1.9-0.2-3.6-0.6-5.3c-0.4-1.7-1-3.1-1.8-4.4c-0.9-1.2-2-2.2-3.5-3c-1.5-0.7-3.3-1.1-5.5-1.1
			c-3,0-5.6,0.7-7.8,2.2c-2.2,1.5-4.1,3.3-5.5,5.7c-1.5,2.3-2.6,4.9-3.4,7.6c-0.7,2.8-1.1,5.5-1.1,8.1c0,1.9,0.2,3.7,0.6,5.4
			c0.4,1.6,1.1,3.1,2,4.3c0.9,1.2,2.1,2.1,3.6,2.9C429.6,243.5,431.4,243.8,433.6,243.8z"/>
		<path class="st4" d="M477.3,196.4h15l4.1,43.3h0.2l21.2-43.3h16.7l3.1,43.3h0.2l22.2-43.3h15.3l-32,57.7h-16.9l-3.2-44.1H523
			L502,254.1h-17L477.3,196.4z"/>
	</g>
</g>
</svg>
